<?xml version="1.0" standalone="no"?>
<!DOCTYPE svg PUBLIC "-//W3C//DTD SVG 20010904//EN"
 "http://www.w3.org/TR/2001/REC-SVG-20010904/DTD/svg10.dtd">
<svg version="1.0" xmlns="http://www.w3.org/2000/svg"
 width="1024.000000pt" height="1024.000000pt" viewBox="0 0 1024.000000 1024.000000"
 preserveAspectRatio="xMidYMid meet">

<g transform="translate(0.000000,1024.000000) scale(0.100000,-0.100000)"
fill="#000000" stroke="none">
<path d="M5060 8533 c-179 -21 -343 -104 -470 -240 -77 -82 -121 -153 -154
-249 -70 -200 -58 -381 40 -583 38 -78 60 -109 132 -181 96 -96 177 -147 300
-188 67 -23 94 -26 212 -26 126 0 141 2 221 30 134 47 214 98 306 190 67 68
90 100 127 176 62 129 79 200 79 333 0 125 -16 199 -68 311 -104 226 -324 386
-581 424 -70 10 -81 10 -144 3z"/>
<path d="M3855 7099 c-112 -15 -242 -56 -361 -113 -310 -152 -539 -426 -619
-741 -103 -405 -5 -747 308 -1083 42 -45 77 -88 77 -95 0 -8 -43 -53 -95 -101
-236 -218 -362 -450 -400 -738 -51 -399 149 -849 475 -1062 156 -103 342 -173
516 -197 129 -17 369 -7 469 20 104 28 259 104 365 180 47 33 176 136 288 229
111 93 214 175 228 182 33 18 32 19 254 -165 266 -220 362 -289 485 -350 183
-90 377 -124 593 -104 211 19 375 76 540 186 322 214 513 565 514 943 1 127
-11 204 -48 328 -62 206 -159 357 -337 528 l-121 114 46 48 c173 180 291 378
346 582 23 84 26 114 26 265 0 139 -4 187 -21 260 -79 333 -277 594 -571 752
-383 206 -841 183 -1197 -62 -90 -62 -243 -196 -370 -324 -55 -56 -106 -101
-113 -101 -7 0 -97 82 -200 183 -240 233 -361 316 -557 382 -158 53 -368 75
-520 54z m327 -597 c112 -40 183 -99 484 -398 326 -324 358 -349 459 -348 98
0 143 31 355 238 385 377 422 412 477 448 84 55 162 79 278 85 178 9 325 -48
450 -175 73 -74 135 -185 154 -280 15 -74 13 -185 -4 -261 -31 -129 -59 -166
-326 -433 -201 -200 -250 -255 -258 -286 -13 -46 -2 -90 36 -144 26 -38 180
-180 373 -345 164 -139 211 -200 249 -327 31 -102 29 -258 -4 -364 -79 -249
-304 -403 -590 -403 -76 0 -116 5 -165 21 -114 38 -152 64 -380 260 -473 406
-512 435 -608 447 -62 7 -132 -15 -205 -65 -49 -34 -199 -155 -536 -430 -237
-194 -298 -224 -467 -230 -91 -3 -125 0 -188 17 -184 50 -317 158 -393 316
-92 194 -79 383 40 562 54 82 131 162 283 293 152 133 283 260 300 292 19 36
18 98 -2 128 -9 14 -117 126 -240 250 -122 124 -241 252 -264 285 -61 88 -85
176 -84 305 0 81 5 120 23 172 60 178 214 323 404 380 85 25 267 20 349 -10z"/>
<path d="M2128 5760 c-215 -34 -398 -169 -493 -365 -54 -113 -69 -176 -68
-290 1 -361 287 -649 643 -648 412 1 721 389 635 797 -16 74 -57 170 -99 233
-77 114 -219 217 -353 256 -67 20 -193 28 -265 17z"/>
<path d="M7965 5760 c-141 -20 -257 -80 -371 -194 -130 -130 -188 -272 -188
-461 1 -184 64 -336 193 -465 136 -136 269 -186 471 -177 178 8 311 66 430
186 249 253 245 676 -10 931 -140 140 -333 207 -525 180z"/>
<path d="M4942 3170 c-207 -55 -386 -219 -471 -433 -44 -110 -54 -180 -49
-325 4 -109 9 -140 36 -215 87 -247 292 -424 550 -473 150 -29 263 -10 422 67
90 45 117 64 190 138 141 142 199 278 207 491 6 159 -10 242 -73 370 -40 82
-60 109 -143 191 -79 78 -112 103 -181 137 -47 23 -112 49 -145 57 -84 21
-251 19 -343 -5z"/>
</g>
</svg>
